<svg xmlns="http://www.w3.org/2000/svg" width="108" height="108" viewBox="0 0 108 108" role="img" aria-label="ClusterTune app icon">
  <g transform="translate(54 54) scale(0.86) translate(-54 -54)">
    <path fill="#CBD5E1" d="M14,40h10a2,2 0 0 1 2,2v0a2,2 0 0 1 -2,2H14a2,2 0 0 1 -2,-2v0a2,2 0 0 1 2,-2z M14,52h10a2,2 0 0 1 2,2v0a2,2 0 0 1 -2,2H14a2,2 0 0 1 -2,-2v0a2,2 0 0 1 2,-2z M14,64h10a2,2 0 0 1 2,2v0a2,2 0 0 1 -2,2H14a2,2 0 0 1 -2,-2v0a2,2 0 0 1 2,-2z M84,40h10a2,2 0 0 1 2,2v0a2,2 0 0 1 -2,2H84a2,2 0 0 1 -2,-2v0a2,2 0 0 1 2,-2z M84,52h10a2,2 0 0 1 2,2v0a2,2 0 0 1 -2,2H84a2,2 0 0 1 -2,-2v0a2,2 0 0 1 2,-2z M84,64h10a2,2 0 0 1 2,2v0a2,2 0 0 1 -2,2H84a2,2 0 0 1 -2,-2v0a2,2 0 0 1 2,-2z M40,14v10a2,2 0 0 0 2,2h0a2,2 0 0 0 2,-2V14a2,2 0 0 0 -2,-2h0a2,2 0 0 0 -2,2z M52,14v10a2,2 0 0 0 2,2h0a2,2 0 0 0 2,-2V14a2,2 0 0 0 -2,-2h0a2,2 0 0 0 -2,2z M64,14v10a2,2 0 0 0 2,2h0a2,2 0 0 0 2,-2V14a2,2 0 0 0 -2,-2h0a2,2 0 0 0 -2,2z M40,84v10a2,2 0 0 0 2,2h0a2,2 0 0 0 2,-2V84a2,2 0 0 0 -2,-2h0a2,2 0 0 0 -2,2z M52,84v10a2,2 0 0 0 2,2h0a2,2 0 0 0 2,-2V84a2,2 0 0 0 -2,-2h0a2,2 0 0 0 -2,2z M64,84v10a2,2 0 0 0 2,2h0a2,2 0 0 0 2,-2V84a2,2 0 0 0 -2,-2h0a2,2 0 0 0 -2,2z" />
    <path fill="#1E293B" d="M30,24h48a6,6 0 0 1 6,6v48a6,6 0 0 1 -6,6H30a6,6 0 0 1 -6,-6V30a6,6 0 0 1 6,-6z" />
    <path fill="#0F172A" d="M36,30h36a6,6 0 0 1 6,6v36a6,6 0 0 1 -6,6H36a6,6 0 0 1 -6,-6V36a6,6 0 0 1 6,-6z" />
    <path d="M30,24h48a6,6 0 0 1 6,6v48a6,6 0 0 1 -6,6H30a6,6 0 0 1 -6,-6V30a6,6 0 0 1 6,-6z" fill="none" stroke="#22D3EE" stroke-width="2" />
    <path fill="#22D3EE" d="M42,56h4a2,2 0 0 1 2,2v14a2,2 0 0 1 -2,2h-4a2,2 0 0 1 -2,-2V58a2,2 0 0 1 2,-2z" />
    <path fill="#8B5CF6" d="M42,42h4a2,2 0 0 1 2,2v14a2,2 0 0 1 -2,2h-4a2,2 0 0 1 -2,-2V44a2,2 0 0 1 2,-2z" />
    <path fill="#0F172A" stroke="#93C5FD" stroke-width="2" d="M44,57a4,4 0 1 1 0.01,0z" />
    <path fill="#22D3EE" d="M52,50h4a2,2 0 0 1 2,2v20a2,2 0 0 1 -2,2h-4a2,2 0 0 1 -2,-2V52a2,2 0 0 1 2,-2z" />
    <path fill="#8B5CF6" d="M52,36h4a2,2 0 0 1 2,2v14a2,2 0 0 1 -2,2h-4a2,2 0 0 1 -2,-2V38a2,2 0 0 1 2,-2z" />
    <path fill="#0F172A" stroke="#93C5FD" stroke-width="2" d="M54,52a4,4 0 1 1 0.01,0z" />
    <path fill="#22D3EE" d="M62,44h4a2,2 0 0 1 2,2v26a2,2 0 0 1 -2,2h-4a2,2 0 0 1 -2,-2V46a2,2 0 0 1 2,-2z" />
    <path fill="#A855F7" d="M62,30h4a2,2 0 0 1 2,2v14a2,2 0 0 1 -2,2h-4a2,2 0 0 1 -2,-2V32a2,2 0 0 1 2,-2z" />
    <path fill="#0F172A" stroke="#C4B5FD" stroke-width="2" d="M64,45a4,4 0 1 1 0.01,0z" />
  </g>
</svg>
